<svg xmlns="http://www.w3.org/2000/svg" width="16" height="16" class="s1xugoyy">
    <path d="M 8 1.5 C 8.552 1.5 9 1.948 9 2.5 C 9 3.052 8.552 3.5 8 3.5 C 7.448 3.5 7 3.052 7 2.5 C 7 1.948 7.448 1.5 8 1.5 Z"
          fill="rgb(153, 153, 153)"></path>
    <path d="M 8 1.5 C 11.59 1.5 14.5 4.41 14.5 8 C 14.5 11.59 11.59 14.5 8 14.5 C 4.41 14.5 1.5 11.59 1.5 8 C 1.5 4.41 4.41 1.5 8 1.5 Z M 3.5 8 C 3.5 10.485 5.515 12.5 8 12.5 C 10.485 12.5 12.5 10.485 12.5 8 C 12.5 5.515 10.485 3.5 8 3.5 C 5.515 3.5 3.5 5.515 3.5 8 Z"
          fill="red" class="m1gv7el0"></path>
</svg>