<svg display="block" role="presentation" viewBox="0 0 16 16" xmlns="http://www.w3.org/2000/svg">
    <path d="M 9.259 15.986 L 14.07 14.945 C 14.07 14.945 12.334 3.203 12.32 3.125 C 12.308 3.048 12.244 2.997 12.179 2.997 C 12.115 2.997 10.893 2.907 10.893 2.907 C 10.893 2.907 10.043 2.057 9.934 1.966 C 9.91 1.945 9.883 1.928 9.853 1.917 L 9.244 15.986 Z M 6.841 7.537 C 6.841 7.537 6.301 7.254 5.659 7.254 C 4.694 7.254 4.656 7.858 4.656 8.015 C 4.656 8.836 6.816 9.158 6.816 11.101 C 6.816 12.631 5.856 13.607 4.545 13.607 C 2.976 13.607 2.185 12.631 2.185 12.631 L 2.616 11.24 C 2.616 11.24 3.446 11.951 4.136 11.951 C 4.305 11.956 4.469 11.893 4.592 11.777 C 4.714 11.66 4.784 11.498 4.786 11.329 C 4.786 10.25 3.017 10.2 3.017 8.423 C 2.994 6.932 4.064 5.479 6.235 5.479 C 7.073 5.479 7.485 5.72 7.485 5.72 L 6.855 7.53 Z M 6.481 0.553 C 6.572 0.553 6.662 0.579 6.751 0.643 C 6.095 0.953 5.375 1.736 5.079 3.305 C 4.662 3.44 4.242 3.568 3.82 3.69 C 4.166 2.5 5.002 0.56 6.481 0.56 Z M 7.305 2.519 L 7.305 2.609 C 6.802 2.764 6.249 2.932 5.709 3.1 C 6.019 1.915 6.597 1.337 7.099 1.119 C 7.227 1.453 7.305 1.903 7.305 2.519 M 7.664 1.03 C 8.127 1.079 8.425 1.608 8.617 2.2 C 8.384 2.276 8.127 2.354 7.845 2.444 L 7.845 2.276 C 7.845 1.775 7.781 1.362 7.664 1.029 Z M 9.659 1.889 C 9.645 1.889 9.619 1.903 9.607 1.903 C 9.595 1.903 9.414 1.953 9.131 2.043 C 8.849 1.221 8.347 0.463 7.459 0.463 L 7.382 0.463 C 7.125 0.139 6.814 0 6.545 0 C 4.474 0 3.485 2.585 3.175 3.897 C 2.379 4.141 1.799 4.321 1.735 4.347 C 1.285 4.489 1.272 4.501 1.22 4.927 C 1.17 5.235 0 14.302 0 14.302 L 9.041 16 Z"
          fill="white" height="16px" id="jeD1gAHoQ" transform="translate(0.965 0)"
          width="14.070000434875485px"></path>
</svg>