<svg display="block" role="presentation" viewBox="0 0 24 24" xmlns="http://www.w3.org/2000/svg">
    <path d="M 8 19.728 C 8.619 20.085 9.381 20.085 10 19.728 L 17 15.728 C 17.618 15.371 17.999 14.712 18 13.998 L 18 5.998 C 17.999 5.284 17.618 4.625 17 4.268 L 10 0.268 C 9.381 -0.089 8.619 -0.089 8 0.268 L 1 4.268 C 0.382 4.625 0.001 5.284 0 5.998 L 0 13.998 C 0.001 14.712 0.382 15.371 1 15.728 Z"
          fill="transparent" height="19.995898384862247px" id="v60ucJKdD" stroke-dasharray="" stroke-linecap="round"
          stroke-linejoin="round" stroke-width="var(--js9iwy, 2)" stroke="var(--1m973uw, rgb(0,0,0))"
          transform="translate(3 2.002)" width="18px"></path>
    <path d="M 0 10 L 0 0" fill="transparent" height="10px" id="zP8yhEe9t" stroke-linecap="round"
          stroke-linejoin="round" stroke-width="var(--js9iwy, 2)" stroke="var(--1m973uw, rgb(0,0,0))"
          transform="translate(12 12)" width="1px"></path>
    <path d="M 0 0 L 8.71 5 L 17.42 0" fill="transparent" height="5px" id="rtrvJhGiT" stroke-dasharray=""
          stroke-linecap="round" stroke-linejoin="round" stroke-width="var(--js9iwy, 2)"
          stroke="var(--1m973uw, rgb(0,0,0))" transform="translate(3.29 7)" width="17.42px"></path>
    <path d="M 0 0 L 9 5.15" fill="transparent" height="5.15px" id="LIvG6Pfl_" stroke-dasharray=""
          stroke-linecap="round" stroke-linejoin="round" stroke-width="var(--js9iwy, 2)"
          stroke="var(--1m973uw, rgb(0,0,0))" transform="translate(7.5 4.27)" width="9px"></path>
</svg>